# xmcd
#
# Track frame offsets:
#	150
#	14025
#	34953
#	47625
#	62039
#	79409
#	91219
#	104620
#	120797
#	138873
#
# Disc length: 2044 seconds
#
# Revision: 1
# Processed by: cddbd v1.5.2PL0 Copyright (c) Steve Scherf et al.
# Submitted via: audiograbber 1.83.01
#
DISCID=8107fa0a
DTITLE=The Highwaymen - Country
DYEAR=2012
DGENRE=Country
TTITLE0=Highwayman
TTITLE1=Desperados Waiting For A Train
TTITLE2=Big River
TTITLE3=The Last Cowboy Song
TTITLE4=Against The Wind
TTITLE5=Welfare Line
TTITLE6=Songs That Make A Difference
TTITLE7=Angels Love Bad Men
TTITLE8=Living Legend
TTITLE9=Silver Stallion
EXTD=
EXTT0=
EXTT1=
EXTT2=
EXTT3=
EXTT4=
EXTT5=
EXTT6=
EXTT7=
EXTT8=
EXTT9=
PLAYORDER=
